<svg xmlns="http://www.w3.org/2000/svg" width="1200" height="630" viewBox="0 0 1200 630" role="img" aria-label="MIDIGI Marketing">
  <rect width="1200" height="630" fill="#020617"/>
  <circle cx="190" cy="120" r="210" fill="#2563EB" opacity=".23"/>
  <circle cx="1040" cy="80" r="210" fill="#06B6D4" opacity=".16"/>
  <rect x="90" y="88" width="1020" height="454" rx="30" fill="#0F172A" opacity=".82" stroke="#1E293B"/>
  <text x="130" y="200" fill="#FFFFFF" font-family="Arial, sans-serif" font-size="82" font-weight="800">MIDIGI</text>
  
  <!-- Wrap text into two lines -->
  <text x="130" y="280" fill="#BFDBFE" font-family="Arial, sans-serif" font-size="42" font-weight="700">Marketing tăng trưởng cho</text>
  <text x="130" y="335" fill="#BFDBFE" font-family="Arial, sans-serif" font-size="42" font-weight="700">doanh nghiệp Việt</text>
  
  <!-- Wrap description into two lines -->
  <text x="130" y="390" fill="#94A3B8" font-family="Arial, sans-serif" font-size="28">Website, quảng cáo đa nền tảng,</text>
  <text x="130" y="430" fill="#94A3B8" font-family="Arial, sans-serif" font-size="28">thương hiệu và tối ưu chuyển đổi.</text>
  
  <!-- Move button down slightly -->
  <rect x="130" y="465" width="230" height="56" rx="12" fill="#2563EB"/>
  <text x="162" y="501" fill="#FFFFFF" font-family="Arial, sans-serif" font-size="22" font-weight="700">Tư vấn miễn phí</text>
  
  <!-- Move icon block to the right using group translate -->
  <g transform="translate(60, -20)">
    <rect x="760" y="170" width="250" height="210" rx="18" fill="#020617" stroke="#1E293B"/>
    <path d="M797 329C827 281 861 306 888 258C915 210 948 234 982 196" fill="none" stroke="#06B6D4" stroke-width="12" stroke-linecap="round"/>
    <rect x="797" y="407" width="168" height="12" rx="6" fill="#1E40AF"/>
    <rect x="797" y="434" width="124" height="12" rx="6" fill="#334155"/>
  </g>
</svg>
